<svg xmlns="http://www.w3.org/2000/svg" width="214" height="214">
    <path stroke="none" fill="#20be86" d="M97 12.773502691896a20 20 0 0 1 20 0l66.602540378444 38.452994616207a20 20 0 0 1 10 17.320508075689l0 76.905989232415a20 20 0 0 1 -10 17.320508075689l-66.602540378444 38.452994616207a20 20 0 0 1 -20 0l-66.602540378444 -38.452994616208a20 20 0 0 1 -10 -17.320508075689l1.2248507893153e-13 -76.905989232415a20 20 0 0 1 10 -17.320508075689"></path>
    <defs>
        <path id="rb" stroke="none" fill="RoyalBlue" d="M79 0.57735026918964a2 2 0 0 1 2 0l67.282032302755 38.845299461621a2 2 0 0 1 1 1.7320508075689l0 77.690598923241a2 2 0 0 1 -1 1.7320508075689l-67.282032302755 38.845299461621a2 2 0 0 1 -2 0l-67.282032302755 -38.845299461621a2 2 0 0 1 -1 -1.7320508075689l1.2373469526012e-13 -77.690598923241a2 2 0 0 1 1 -1.7320508075689"></path>
    </defs>
    <defs>
        <path id="g" stroke="none" transform="rotate(45)" fill="#20be86" d="M31.428932188135 3.1446609406726a10 10 0 0 1 14.142135623731 0l28.284271247462 28.284271247462a10 10 0 0 1 0 14.142135623731l-28.284271247462 28.284271247462a10 10 0 0 1 -14.142135623731 0l-28.284271247462 -28.284271247462a10 10 0 0 1 0 -14.142135623731"></path>
    </defs>
    <use x="27" y="27" xlink:href="#rb" />
    <use x="107" y="52" xlink:href="#g" />
</svg>
